<svg version="1.1" xmlns="http://www.w3.org/2000/svg" xmlns:xlink="http://www.w3.org/1999/xlink" class="wiz-svg-base" viewBox="0 89 794 874" id="svg_1562330708040_090071" style="background-color: rgb(255, 255, 255);"><g wiz-type="ink" stroke="#333333" stroke-linecap="round" stroke-linejoin="round" fill="none"><path d="M 174 180 L 205.7 217.2 L 219 232 L 223.9 236.9 L 227.5 240.3 L 230.9 243.3 L 234.7 246.6 L 238.3 249.3 L 247.2 255.9 L 248.4 256.7 L 249.4 257.4 L 250.5 258 L 251.5 258.6 L 252.4 259.2 L 253.3 259.7 L 254.2 260.1 L 255 260.5 L 256.6 261.2 L 262.3 263.5 L 263.6 264 L 264.8 264.4 L 265.9 264.7 L 266.9 265 L 267.9 265.1 L 268.7 265.2 L 269.4 265.2 L 270 265 L 270.5 264.3 L 270.7 263.1 L 270.6 261.8 L 270.3 260.4 L 270.1 259.4" stroke-width="4"></path></g><g wiz-type="ink" stroke="#333333" stroke-linecap="round" stroke-linejoin="round" fill="none"><path d="M 318 132 L 317.7 132.4 L 316.9 133.2 L 311.7 139.4 L 309 142.4 L 306.5 145 L 303.7 147.8 L 300.4 150.8 L 296.3 154.5 L 276.7 170.9 L 239.9 200.1 L 232.5 205.3 L 213.6 217.8 L 208.1 221.6 L 190.7 234.7 L 170.6 250.9 L 167.1 254 L 164.6 256.3 L 163 258 L 162 259.1 L 161.1 260.1 L 160.4 261.1 L 159.7 262 L 159.2 262.9 L 158.7 263.7 L 158.3 264.5 L 156.5 268 L 156 269.1 L 155.5 270.1 L 155.1 271.1 L 154.8 272 L 154.5 273 L 154.2 274 L 154 275 L 153.8 276 L 153.7 276.9 L 153.7 277.8 L 153.7 278.8 L 153.7 279.7 L 153.8 280.7 L 154 283 L 154.1 283.9 L 154.2 284.7 L 155.7 292.8 L 155.9 293.9 L 156.1 295.9 L 156.3 296.8 L 157.1 301.3 L 157.2 302.3 L 157.3 303.3 L 157.4 304.3 L 157.4 305.3 L 157.4 306.4 L 157.3 307.6 L 157.2 308.8 L 157 310 L 156.8 310.8 L 156.6 311.7 L 156.4 312.6 L 155.8 314.6 L 155.2 316.6 L 153.7 321 L 149 333 L 148.3 334.8 L 147.9 335.6 L 147.3 336.3 L 146.8 337.2 L 146 339 L 145.7 339.6 L 136.3 365 L 136.5 364.5 L 137 364 L 137.3 364.6 L 139 365 L 139.6 365 L 140.2 364.9 L 140.8 364.8 L 142.3 364.5 L 143.1 364.4 L 144.1 364.2 L 145.3 364.1 L 146.7 364 L 148.2 364 L 163.1 364.3 L 169.6 364.7 L 174.1 365.1 L 177.5 365.5 L 181 366 L 185.4 366.8 L 192.7 368.3 L 203.4 370.9 L 227.2 377.5 L 259.8 388 L 340.6 411.1 L 356.1 414.8 L 362 416 L 366.9 416.8 L 369.9 417.2 L 372.6 417.5 L 375.1 417.7 L 377.4 417.8 L 378.5 417.8 L 379.5 417.8 L 380.6 417.8 L 381.5 417.7 L 382.5 417.7 L 383.4 417.6 L 384.3 417.5 L 385.1 417.4 L 385.9 417.3 L 386.8 417.1 L 388.3 416.8 L 389.8 416.5 L 391.3 416.1 L 400.1 413.7 L 401.2 413.4 L 402.3 413 L 403.3 412.6 L 404.4 412.2 L 405.4 411.8 L 406.4 411.3 L 407.4 410.9 L 408.4 410.4 L 409.4 409.9 L 411.3 408.8 L 413.1 407.8 L 414.9 406.6 L 417.4 404.9 L 420.5 402.7 L 425.9 398.5 L 427.5 397.2 L 428.3 396.5 L 429 395.9 L 429.6 395.2 L 430.2 394.6 L 430.8 393.9 L 431.4 393.3 L 431.9 392.5 L 432.4 391.8 L 432.8 391 L 433.3 390.1 L 433.7 389.2 L 434.2 388.2 L 434.6 387.1 L 435 386 L 435.3 385.2 L 435.8 383.7 L 436.3 382 L 436.7 380.3 L 437.2 378.5 L 437.6 376.6 L 437.9 374.6 L 438.3 372.6 L 438.5 370.5 L 438.8 368.4 L 439 366.2 L 439.1 364 L 439.1 361.7 L 439.1 359.4 L 439 357 L 438.8 354.4 L 438.5 351.6 L 438 347.8 L 437.2 342.9 L 436 336.8 L 434.4 329.6 L 431.9 320.1 L 428.7 309.5 L 425.5 299.9 L 421.9 290.2 L 418 280.6 L 414.1 272.2 L 409.9 263.6 L 403.6 251.7 L 398.3 242.7 L 395 237.3 L 393.2 234.7 L 392 233 L 390.8 231.5 L 389.8 230.3 L 388.8 229.3 L 387.8 228.5 L 386.9 227.9 L 386.1 227.4 L 385.3 227.1 L 384.5 226.8 L 383.7 226.7 L 383 226.6 L 381.4 226.4 L 380.7 226.3 L 379.8 226.2 L 378 225.8 L 376.9 225.6 L 375.9 225.5 L 374.8 225.4 L 373.7 225.4 L 372.6 225.4 L 371.5 225.4 L 370.5 225.5 L 369.5 225.5 L 368.5 225.7 L 367.6 225.8 L 366 226 L 364.6 226.3 L 363.6 226.6 L 362.8 226.9 L 362 227.4 L 360 229 L 359.4 229.4 L 357 231 L 356.3 231.4 L 355.6 232 L 354.9 232.6 L 354.1 233.3 L 353.2 234.2 L 352.2 235.3 L 351.2 236.5 L 348.7 239.7 L 340.8 250.2 L 335.1 258.4 L 331.4 264.2 L 328.5 269 L 326.6 272.5 L 323.9 277.8 L 319.8 286.3 L 303 324.5 L 302 326.9 L 301.1 329.5 L 300.1 332.4 L 298.8 337.2 L 295.7 349.2 L 289.4 376.7 L 286.6 391.5 L 285.5 398.9 L 285 403 L 284.8 405.8 L 284.7 408.5 L 284.6 411.1 L 284.7 413.6 L 284.8 416 L 285 418.3 L 285.2 420.5 L 285.5 422.6 L 285.9 424.5 L 286.2 426.4 L 286.8 429.1 L 287.6 432.3 L 289 437 L 289.6 438.8 L 290.3 440.1 L 291.1 441 L 291.9 441.6 L 292.8 442 L 293.6 442.2 L 295.3 442.5 L 296.2 442.7 L 297 443 L 298 443.5 L 298.9 443.9 L 299.8 444.2 L 300.7 444.4 L 301.6 444.6 L 302.6 444.8 L 303.8 444.9 L 308.4 445.2 L 309.4 445.2 L 310.3 445.2 L 311.3 445.2 L 312.3 445.1 L 313.4 445 L 314.5 444.8 L 315.6 444.6 L 316.8 444.3 L 318 444 L 319.5 443.5 L 321.1 442.9 L 322.8 442.3 L 324.4 441.6 L 327.1 440.3 L 329.9 439 L 332.8 437.4 L 337 435 L 338.5 434.1 L 340 433.1 L 342.3 431.5 L 350.7 425.4 L 356 421.7 L 358.7 419.9 L 360.5 418.9 L 362.2 417.9 L 363.1 417.4 L 364.9 416.6 L 368.7 414.8 L 372.6 413.2 L 375.6 412.1 L 378.5 411.1 L 380.5 410.4 L 382.4 409.9 L 384.4 409.4 L 386.3 409 L 388.3 408.6 L 389.2 408.4 L 390.2 408.3 L 391.1 408.2 L 392.1 408.1 L 393 408 L 394 407.9 L 395.1 407.9 L 396.2 407.9 L 397.3 408 L 398.4 408 L 399.5 408.1 L 400.6 408.3 L 401.7 408.4 L 403.9 408.7 L 406.1 409.2 L 408.2 409.6 L 411.3 410.4 L 415.2 411.5 L 421.4 413.5 L 422.6 413.9 L 423.7 414.3 L 424.6 414.7 L 425.3 415.1 L 426 415.6 L 426.6 416.1 L 427.2 416.6 L 427.8 417.3 L 428.5 418.1 L 429.2 419 L 432.3 423.1 L 433.3 424.4 L 434.2 425.8 L 434.7 426.5 L 435.1 427.3 L 435.6 428.1 L 436.1 429 L 436.6 430 L 437.6 432 L 438.7 434.4 L 439.8 437 L 441.5 441.4 L 443.6 447.3 L 457.6 491.8 L 459.7 497.3 L 460.5 499.2 L 460.8 500 L 461.2 500.7 L 461.5 501.4 L 461.8 502 L 464 506 L 464.6 507 L 465.2 508 L 465.8 508.9 L 466.5 509.9 L 469.9 514.2 L 470.5 515.1 L 471 515.8 L 471.4 516.6 L 471.8 517.3 L 472 518 L 472.2 519.2 L 472.1 520.2 L 471.8 521 L 471.3 521.8 L 469.8 523.7 L 469 525 L 468.1 526.5 L 465.3 531 L 463.3 533.8 L 462 535.6 L 461.3 536.5 L 460.6 537.3 L 460 538 L 457.9 540.3 L 457.3 540.9 L 456.7 541.5 L 456 542.1 L 455.3 542.7 L 454.5 543.3 L 453.6 543.9 L 452.5 544.6 L 451.4 545.2 L 450 546 L 447.9 547.1 L 443.1 549.5 L 437.6 552 L 431.4 554.6 L 426.1 556.6 L 417.2 559.7 L 407.9 562.6 L 399.8 564.9 L 391 567 L 378.3 569.6 L 359 573.1 L 346.6 574.8 L 335 576 L 332.3 576.2 L 330.6 576.2 L 328.9 576.2 L 327.1 576.1 L 325.3 576 L 323.4 575.8 L 321.4 575.5 L 318 575 L 313.6 574.2 L 307.7 572.9 L 301.5 571.3 L 295.2 569.6 L 290.1 567.9 L 286.2 566.5 L 283.4 565.5 L 280.8 564.4 L 279 563.5 L 277.9 563 L 276.9 562.5 L 274.9 561.4 L 273 560.2 L 271.1 559 L 269.2 557.7 L 267.5 556.5 L 264.9 554.5 L 262.5 552.6 L 259.5 550.1 L 254 545.1 L 253.1 544.2 L 252.2 543.3 L 251.4 542.4 L 250.6 541.5 L 249.9 540.6 L 249.2 539.8 L 248.6 539 L 248 538.2 L 247.5 537.4 L 247 536.6 L 246.6 535.8 L 246.2 535 L 245.9 534.2 L 245.5 533.5 L 245.3 532.7 L 245 532 L 244.7 530.9 L 244.4 529.9 L 244.2 528.9 L 244.1 527.9 L 244.1 527 L 244.3 526.1 L 244.5 525.2 L 244.9 524.2 L 245.4 523.2 L 246.1 522.1 L 247 521 L 247.5 520.5 L 248 519.9 L 248.6 519.3 L 249.2 518.7 L 249.8 518.1 L 250.5 517.5 L 252 516.3 L 254.5 514.3 L 276.8 498.2 L 286.7 491.5 L 300.9 481.8 L 306.3 478.3 L 310.1 476.1 L 313 474.5 L 316 473 L 318 472 L 329.1 467.1 L 335.5 464.5 L 341.2 462.4 L 346.1 460.8 L 350.2 459.6 L 354.4 458.6 L 358.7 457.6 L 362 457 L 365.6 456.4 L 370.4 455.8 L 377.4 455.1 L 386.9 454.4 L 399.7 453.9 L 414.8 453.9 L 429 454.3 L 435.9 454.7 L 439.6 455.1 L 442.3 455.4 L 445 455.9 L 447.8 456.4 L 450.6 457 L 453.5 457.8 L 457.7 458.9 L 462.6 460.5 L 467.9 462.4 L 474.5 465 L 484.3 469.3 L 495.2 474.4 L 504.4 479.1 L 510.8 482.7 L 515.1 485.3 L 518.1 487.3 L 520.8 489.1 L 523.4 491 L 524.9 492.3 L 526.4 493.5 L 527.9 494.7 L 529.2 496 L 530.6 497.3 L 532.5 499.3 L 534.4 501.3 L 536.9 504.2 L 540 508 L 541.2 509.5 L 542.3 511.1 L 543.5 512.8 L 545.2 515.5 L 546.8 518.2 L 549.5 522.9 L 552.5 528.6 L 560.7 545.6 L 561.6 547.7 L 562.4 549.6 L 563 551.4 L 563.6 553.1 L 567.8 566.8 L 570.3 576 L 571.8 582 L 573.1 588.2 L 573.9 593.4 L 574.5 597.4 L 574.8 600.2 L 575 603 L 575.1 605.2 L 575.1 607.4 L 575.1 609.5 L 575 611.6 L 574.8 613.5 L 574.7 614.5 L 574.6 615.4 L 574.5 616.4 L 574.3 617.3 L 574.2 618.1 L 574 619 L 573.7 620.1 L 573.4 621.1 L 573.1 622 L 572.8 622.9 L 572.4 623.8 L 572 624.6 L 571.6 625.5 L 571.1 626.3 L 569.6 629 L 566 635.4 L 565.1 637.1 L 564.5 638 L 563.9 638.9 L 563.3 639.8 L 562.5 640.8 L 561.8 641.8 L 560.9 642.9 L 560 644 L 556.1 648.5 L 550.9 654.2 L 544.9 660.4 L 538 667 L 533.9 670.7 L 505.3 694.8 L 501.3 698.6 L 496.9 702.9 L 490.9 709.3 L 482.3 719 L 482 719.5 L 482.5 719.5 L 483 720 L 483.5 721.4 L 483.9 722.3 L 484.5 723.1 L 485.5 724 L 487 725 L 489.1 726.2 L 491.6 727.5 L 493.6 728.5 L 495.6 729.4 L 496.6 729.8 L 497.7 730.3 L 498.8 730.7 L 499.8 731 L 500.9 731.3 L 502 731.6 L 503 731.8 L 504 732 L 504.9 732.1 L 505.9 732.2 L 506.8 732.3 L 507.7 732.3 L 508.6 732.3 L 509.5 732.3 L 510.5 732.3 L 511.4 732.2 L 512.3 732.1 L 513.3 732 L 514.3 731.9 L 515.3 731.7 L 516.3 731.5 L 518.4 731.1 L 520.6 730.6 L 524.7 729.6 L 528.3 728.5 L 534.2 726.6 L 540.3 724.4 L 546.4 722 L 561.1 715.6 L 562.8 714.8 L 564.5 713.9 L 565.4 713.4 L 566.2 712.9 L 567.1 712.4 L 567.9 711.8 L 568.8 711.2 L 569.7 710.6 L 570.5 710 L 571.4 709.3 L 572.2 708.6 L 573.1 707.8 L 574 707 L 575.3 705.8 L 577.8 703.3 L 580.4 700.6 L 583 697.7 L 584.9 695.4 L 586.8 693 L 588.7 690.4 L 590.6 687.8 L 592.4 685 L 594.2 682.1 L 595.9 679.1 L 597.4 676.2 L 599.3 672.2 L 601.6 667 L 604.2 660.6 L 606.7 653.9 L 609.3 646 L 611.7 637.9 L 613.8 630 L 616.2 619.4 L 617.8 610.6 L 619.1 602.7 L 619.9 595.7 L 620.5 589.6 L 620.8 583.3 L 621 577 L 621 570.2 L 620.6 560.9 L 619.8 550.3 L 618.7 539.8 L 617.5 530.7 L 616.3 524.1 L 615.2 518.8 L 614.4 515.7 L 613.8 513.4 L 613.1 511.2 L 612.4 509 L 611.2 505.9 L 610 502.9 L 608.7 499.9 L 606.9 496.2 L 604.6 491.8 L 596.2 476.8 L 594.4 473.8 L 592.6 471 L 590.8 468.5 L 589 466.1 L 587.2 463.9 L 585.5 461.8 L 583.7 459.8 L 582 458 L 581.1 457.1 L 580.3 456.3 L 579.4 455.6 L 578.6 454.9 L 577.7 454.2 L 576.9 453.6 L 576 453 L 575.2 452.4 L 574.4 451.9 L 573.5 451.4 L 572.7 450.9 L 571.9 450.4 L 570.2 449.6 L 566 447.5 L 565 447.1 L 564 446.6 L 563 446.2 L 562 445.9 L 561 445.6 L 560 445.3 L 559 445 L 558 444.7 L 557 444.5 L 556 444.4 L 555 444.2 L 554 444.1 L 553 444 L 552 444 L 551 443.9 L 550 444 L 548.9 444 L 547.9 444.1 L 546.8 444.2 L 545.8 444.3 L 544.7 444.5 L 543.7 444.6 L 542.7 444.8 L 541.7 445 L 540.7 445.2 L 539.8 445.5 L 538.9 445.7 L 536 446.7 L 535.1 447 L 534.2 447.3 L 533.5 447.7 L 532.7 448.1 L 531.9 448.6 L 531 449.2 L 530.1 450 L 529.1 450.9 L 527.5 452.5 L 527 452.9 L 526.5 453.4 L 525.9 453.8 L 523.8 455.4 L 522.6 456.3 L 522.1 456.8 L 521.5 457.3 L 520.9 457.9 L 520.3 458.5 L 519.6 459.2 L 519 459.9 L 518.4 460.7 L 517.7 461.6 L 517 462.5 L 516.4 463.5 L 515.7 464.7 L 515 465.9 L 514.2 467.3 L 513.5 468.7 L 512.8 470.3 L 512 472 L 510.9 474.6 L 507.4 483.4 L 501.1 501.2 L 493.1 525.9 L 488.7 541.4 L 486.4 550.9 L 484.6 559.4 L 483.4 566.4 L 482.6 572.1 L 482 577.8 L 481.4 584.3 L 481.1 592 L 481 601 L 481.1 608.3 L 481.6 616.8 L 482.3 625.2 L 483.2 633.4 L 484.3 640.2 L 485.3 645.6 L 486.3 650.2 L 487.1 653.5 L 488 656.6 L 489 659.6 L 489.7 661.5 L 490.4 663.3 L 491.1 665.1 L 492.3 667.7 L 493.5 670.2 L 494.8 672.7 L 496.7 676.1 L 499.3 680.3 L 503.1 686.1 L 505.9 690.1 L 508.9 694.1 L 512.7 698.8 L 516.7 703.5 L 521 708.1 L 525.3 712.5 L 529 716 L 532.7 719.3 L 536.5 722.5 L 541.1 726.1 L 545.9 729.7 L 551.8 733.7 L 558.7 738.2 L 567.5 743.4 L 574.4 747.3 L 584.5 752.4 L 598.4 758.9 L 614.1 765.7 L 623.4 769.3 L 636.5 773.8 L 655.3 779.6 L 658.5 780.4 L 660.3 780.8 L 661.9 781.1 L 663.6 781.4 L 665.2 781.6 L 670 782.1 L 672 782.2 L 675.1 782.4 L 678.3 782.4 L 682.5 782.4 L 686.5 782.2 L 690 782 L 691.3 781.9 L 692.5 781.7 L 693.6 781.5 L 694.7 781.3 L 695.7 781.1 L 696.6 780.9 L 697.6 780.6 L 707.2 777.7 L 709.2 777.1 L 710.2 776.7 L 711.1 776.3 L 712.1 775.9 L 713 775.5 L 714 775 L 714.9 774.5 L 715.8 774 L 716.6 773.5 L 717.5 772.9 L 718.4 772.3 L 719.3 771.8 L 720.1 771.1 L 720.9 770.5 L 721.7 769.9 L 722.5 769.3 L 724.8 767.3 L 726.2 766.2 L 726.9 765.6 L 727.5 765.1 L 728.1 764.4 L 728.8 763.6 L 729.5 762.6 L 730.2 761.5 L 731 760 L 734.6 753.1 L 736.3 749.4 L 737.6 746.4 L 738.4 744.4 L 739.2 742.3 L 739.9 740.2 L 740.2 739.1 L 740.5 738.1 L 740.8 737 L 741.4 734.2 L 742.3 729.8 L 742.7 727.1 L 743.1 724.4 L 743.3 722.5 L 743.4 720.6 L 743.5 718.6 L 743.5 716.5 L 743.5 714.4 L 743.5 712.1 L 743.3 709.8 L 743 706 L 742.5 701.8 L 741.6 695.3 L 740 686.3 L 737.8 675.9 L 735.5 666.6 L 733.6 659.8 L 731.4 653 L 729 646.4 L 726.8 640.8 L 724.4 635.4 L 721.9 630 L 718.6 623.6 L 714.5 616.2 L 708.1 605.4 L 702.6 596.9 L 697.9 590.1 L 693.6 584.3 L 689.7 579.5 L 686.4 575.5 L 681.7 570.4 L 675.9 564.3 L 671.3 559.8 L 666.4 555.4 L 661.9 551.5 L 656.3 547 L 649 541.6 L 639 534.5 L 621.3 523 L 599.9 509.9 L 584.3 501.2 L 575.1 496.5 L 568.7 493.5 L 563.4 491.2 L 558.3 489.2 L 553.5 487.5 L 548.7 486 L 544.1 484.6 L 538.7 483.2 L 531.4 481.6 L 514.1 478.3 L 504.9 476.9 L 494.4 475.6 L 484 474.7 L 473.8 474.1 L 466.2 473.9 L 460 474 L 455.3 474.2 L 450.8 474.6 L 446.5 475 L 442.3 475.6 L 439.3 476.1 L 436.4 476.7 L 433.6 477.4 L 430.9 478.1 L 428.2 478.9 L 425.7 479.8 L 423.2 480.7 L 420.8 481.7 L 419 482.5 L 418 482.9 L 417 483.4 L 416 483.9 L 415.1 484.5 L 414.1 485 L 413.2 485.6 L 412.3 486.2 L 411.4 486.7 L 410.6 487.4 L 409.7 488 L 408.9 488.6 L 408.1 489.2 L 407.3 489.9 L 405.7 491.2 L 404.3 492.6 L 402.8 494 L 401.5 495.4 L 400.2 496.8 L 398.9 498.3 L 397.7 499.8 L 396 502 L 395.4 502.8 L 394.8 503.7 L 394.3 504.5 L 393.8 505.4 L 393.3 506.2 L 392.8 507.1 L 392.3 508 L 391.9 508.9 L 391.4 509.8 L 391 510.7 L 390.6 511.6 L 390.3 512.5 L 389.9 513.4 L 389.2 515.3 L 388.6 517.2 L 388.1 519.1 L 387.3 522.1 L 386.6 525 L 385.8 528.9 L 385.5 530.9 L 385.2 532.8 L 385 534.8 L 384.7 537.8 L 384.6 540.9 L 384.5 544 L 384.5 548.1 L 384.6 552.1 L 384.8 556.1 L 385.6 564.1 L 386 568.1 L 386.3 570 L 386.7 572 L 387.1 573.9 L 387.3 574.9 L 387.6 575.9 L 387.8 576.9 L 388.1 577.9 L 388.5 578.9 L 388.8 579.9 L 389.2 580.9 L 389.6 581.9 L 390 582.9 L 390.5 584 L 391 585 L 391.8 586.6 L 393.4 589.7 L 395.3 592.9 L 396.8 595.4 L 398.4 597.8 L 400.1 600.3 L 401.9 602.8 L 403.9 605.2 L 406 607.7 L 408.2 610.2 L 410.5 612.6 L 413 615 L 418.8 620.3 L 423.6 624.3 L 428 627.8 L 431.9 630.7 L 436.1 633.5 L 440.6 636.4 L 445.4 639.3 L 450.7 642.2 L 457 645.5 L 467.9 650.8 L 484 657.9 L 503 665.5 L 519.7 671.6 L 530.1 675 L 537.5 677 L 546 679.1 L 557.6 681.6 L 603.5 689.9 L 626.1 693.3 L 635.5 695 L 636.1 695.1 L 636.3 695.3 L 636.2 695.6 L 636 696 L 636 696.2 L 636.3 696.2 L 636.8 696.3 L 637.3 696.3 L 639.3 696.3 L 639.8 696.3 L 640.3 696.3 L 640.5 696.4 L 640.6 696.5 L 640.4 696.7 L 639.8 697 L 638.9 697.3 L 637.6 697.8 L 635.7 698.4 L 627 701 L 479.6 741 L 309 793 L 239.8 812.4 L 230 815.7 L 217.5 820.3 L 209.7 823.5 L 204.4 825.9 L 200.5 827.8 L 197.5 829.3 L 194.9 830.9 L 193 832 L 191.7 832.9 L 190.5 833.7 L 189.5 834.6 L 188.5 835.6 L 187.6 836.5 L 186.8 837.4 L 186.1 838.3 L 185.4 839.2 L 184.8 840.1 L 184.3 841 L 183.8 841.9 L 183.4 842.7 L 183 843.5 L 181.8 846.4 L 181.5 847 L 181.3 847.5 L 181 848 L 180.1 849.8 L 180.7 850 L 182 850 L 182.6 850.1 L 183.4 850.2 L 184.2 850.3 L 185.2 850.3 L 186.3 850.3 L 187.6 850.2 L 189 850 L 189.7 849.9 L 190.2 850 L 190.6 850.1 L 191.4 850.4 L 191.9 850.5 L 192.4 850.6 L 193.1 850.5 L 194 850.4 L 195.2 850.1 L 196.6 849.7 L 198.3 849 L 200.4 848.1 L 203.6 846.7 L 214.4 841.4 L 268.2 813.4 L 269.2 812.7 L 270.2 812.1 L 271.1 811.6 L 271.9 811 L 272.6 810.5 L 273.2 810 L 273.8 809.5 L 274.4 809 L 274.8 808.6 L 275.3 808.1 L 275.7 807.7 L 276.1 807.3 L 277.8 805.2 L 278.1 804.8 L 278.5 804.4 L 278.9 804 L 279.3 803.6 L 279.8 803.2 L 280.3 802.8 L 280.9 802.4 L 281.6 802 L 282.3 801.5 L 283.1 801.1 L 283.9 800.6 L 284.9 800.1 L 286 799.6 L 287.1 799.1 L 289.8 798 L 293 796.8 L 298.8 794.7 L 380.8 769.3 L 409.4 761.9 L 427.2 758 L 438.9 755.8 L 447.1 754.6 L 453 754 L 457.8 753.6 L 462.5 753.4 L 467.2 753.4 L 471.8 753.5 L 477.5 753.7 L 483 754.2 L 488.5 754.8 L 495 755.7 L 502.3 756.9 L 510.4 758.6 L 520.2 760.9 L 552.1 769.6 L 565.1 772.7 L 572.7 774.7 L 578.3 776.4 L 583.3 778 L 587.9 779.7 L 593.7 782.1 L 608.2 788.6 L 610.6 789.7 L 612.9 790.8 L 616 792.5 L 618.9 794.2 L 621.6 795.9 L 624.1 797.5 L 627.2 799.7 L 634.3 805 L 635.4 805.9 L 636.4 806.7 L 637.2 807.5 L 638 808.2 L 638.6 809 L 639.2 809.7 L 639.7 810.4 L 640.2 811 L 640.7 811.7 L 641.1 812.5 L 642 814 L 642.5 814.9 L 642.9 815.7 L 643.2 816.5 L 643.4 817.3 L 643.7 818 L 643.8 818.9 L 644.7 823.4 L 645.2 825.7 L 648.5 839.2 L 649.2 842.6 L 649.6 844.8 L 649.8 845.9 L 649.9 846.9 L 650 847.9 L 650.1 848.8 L 650.1 849.7 L 650.1 850.5 L 650.1 851.3 L 650 852 L 649.7 853.1 L 649.4 854.1 L 649 855 L 648.4 855.8 L 647.9 856.5 L 647.2 857.1 L 646.5 857.6 L 645.7 858.1 L 644.8 858.6 L 643.9 859 L 640 860.6 L 639 861 L 635.9 862.4 L 635.4 862.7 L 634.8 862.9 L 634.2 863.1 L 633.6 863.3 L 632.9 863.5 L 632.2 863.7 L 631.3 863.9 L 629.3 864.3 L 625 865.1 L 606.1 867.8 L 550.2 874.6 L 537.6 875.5 L 527.9 875.9 L 520.4 875.9 L 512.3 875.7 L 497.1 874.8 L 488.3 874 L 475.6 872.4 L 396.2 859.8 L 328.4 851.8 L 324.5 851.1 L 319.6 850 L 318.4 849.7 L 317.7 849.5 L 317.5 849.2 L 317.7 849 L 318.1 848.7 L 318.6 848.3 L 319.2 847.8 L 319.8 847.1 L 320.1 846.3 L 320.2 845.3 L 320 844 L 319.8 843.4 L 319.6 842.9 L 319.4 842.3 L 319.2 841.8 L 317.3 837.7 L 316.8 836.5 L 316.6 835.8 L 316.3 835.1 L 316 834.3 L 315.8 833.4 L 315.5 832.5 L 314.9 830.4 L 314.4 828 L 313.8 825.2 L 312.9 820.2 L 311.6 811.3 L 306.7 767.2 L 300.3 691.9 L 300.1 683.9 L 300.2 678.2 L 300.7 664.3 L 303 549.7 L 302.8 544.8 L 302.6 541.3 L 301.9 534.8 L 301.2 527.1 L 301.1 526.3 L 301 525.4 L 300.9 524.6 L 300.7 523.7 L 300.5 522.8 L 300.2 521.9 L 299.9 520.9 L 299.6 519.9 L 299.2 518.9 L 298.7 517.7 L 298.2 516.6 L 297.6 515.3 L 296.7 513.3 L 295.5 511.1 L 293.7 508 L 289.9 501.8 L 283.8 492.5 L 275.8 481 L 271.2 475 L 270.4 474 L 269.7 473.2 L 269 472.5 L 268.4 471.8 L 267.8 471.2 L 267.2 470.7 L 266.7 470.2 L 266.2 469.7 L 265.6 469.3 L 263.4 467.6 L 262.2 466.6 L 261.6 466.1 L 260.9 465.5 L 260.1 464.8 L 259.3 464 L 258.4 463.1 L 257.5 462.2 L 256.5 461.1 L 254.3 458.5 L 233.9 433.9 L 215.1 409.9 L 207.9 399.9 L 204.4 394.7 L 195.2 379.7 L 193.5 376.6 L 192.4 374.3 L 191.3 372.1 L 190.3 369.7 L 189.4 367.3 L 188.5 364.7 L 187.6 361.9 L 186.5 357.9 L 185.4 353.4 L 183.7 345.5 L 182.7 339.6 L 181.3 330.1 L 179.2 312 L 176.5 279.6 L 174.8 245.4 L 174.8 240.3 L 174.9 237 L 175.1 234 L 175.4 231.2 L 175.8 227.9 L 177.4 217.5 L 178 213 L 179.9 193.8 L 180.4 189.9 L 180.9 187 L 181.6 183.9 L 182.3 180.7 L 183.3 177.3 L 184.3 174.2 L 185.5 170.7 L 187.7 165 L 192 154.6 L 199.1 139 L 207 123 L 208.2 120.9 L 209.2 119.2 L 210.1 117.8 L 210.9 116.8 L 211.6 116.1 L 212.3 115.6 L 212.8 115.2 L 213.4 115 L 213.9 114.8 L 214.4 114.7 L 214.9 114.6 L 215.4 114.3 L 216 114 L 217.1 113.1 L 217.9 112.3 L 218.7 111.8 L 219.5 111.4 L 220.6 111.5 L 222 112 L 223.4 112.6 L 223.7 112.8 L 224 113 L 224.3 113.2 L 224.7 113.5 L 225.1 113.8 L 236.5 123.4 L 277.1 158.6 L 295.1 173.3 L 306.6 181.9 L 329 197.8 L 347.1 209.6 L 360.2 217.6 L 369.1 222.6 L 375.3 225.8 L 381.5 228.7 L 388.5 231.7 L 395.3 234.4 L 402.8 237.1 L 411.7 240 L 423.3 243.4 L 425.9 244 L 428.4 244.5 L 430.8 245 L 433.1 245.3 L 435.2 245.6 L 437.4 245.8 L 439.4 245.9 L 442.3 246.1 L 445 246.1 L 455.4 246 L 456.8 245.9 L 458 245.8 L 459.2 245.7 L 460.2 245.5 L 461.3 245.4 L 462.2 245.2 L 463.1 244.9 L 464 244.7 L 467.4 243.7 L 469.1 243.2 L 470 243 L 477.1 241.4 L 478.1 241.2 L 479.1 240.9 L 480.1 240.6 L 481 240.3 L 482 239.9 L 483 239.5 L 484 239 L 484.8 238.6 L 485.7 238.1 L 486.6 237.5 L 487.5 236.9 L 488.5 236.3 L 490.4 235 L 493.1 232.9 L 498 229 L 499.7 227.4 L 500 226.5 L 500 226 L 499.6 225.9 L 499 226 L 499.2 225.8 L 499 225 L 498.6 224.7 L 498 224.6 L 497.3 224.4 L 496.5 223.7 L 495.7 222.4 L 495 220 L 494.7 218.7 L 494 214.8 L 492.8 206.7 L 491.6 196.6 L 491 189 L 490.9 187 L 490.9 185 L 490.9 181.8 L 491.4 168 L 491.5 164 L 491.4 162.1 L 491.4 160.3 L 491.3 159.5 L 491.2 158.6 L 491.1 157.8 L 491 157 L 490.8 155.8 L 490.6 154.6 L 490.3 153.4 L 490.1 152.3 L 489.8 151.2 L 489.5 150.2 L 489.2 149.1 L 488.9 148.2 L 488.5 147.2 L 488.1 146.3 L 487.7 145.4 L 487.3 144.6 L 486.9 143.8 L 486.4 143 L 485.9 142.3 L 485.4 141.5 L 484.8 140.9 L 484.2 140.2 L 483.6 139.6 L 483 139 L 482.3 138.4 L 481.5 137.8 L 480.7 137.2 L 479.9 136.7 L 479 136.1 L 478.1 135.6 L 477.2 135.2 L 476.2 134.7 L 475.2 134.4 L 474.2 134 L 473.2 133.7 L 472.2 133.5 L 471.2 133.4 L 470.1 133.3 L 469.1 133.3 L 468.1 133.3 L 467 133.5 L 466 133.7 L 465 134 L 464.3 134.3 L 463.7 134.5 L 463 134.8 L 462.3 135.2 L 461.7 135.5 L 461 135.9 L 460.4 136.3 L 459.7 136.7 L 459 137.1 L 458.4 137.6 L 457.7 138.1 L 457 138.7 L 456.4 139.3 L 455.7 139.9 L 455 140.5 L 454.3 141.2 L 453.6 141.9 L 452.9 142.7 L 452.2 143.5 L 450.7 145.3 L 449.1 147.2 L 447.5 149.4 L 445 153 L 443.3 155.6 L 441.1 159.2 L 437.3 165.9 L 416.9 204.4 L 413.7 209.9 L 410.9 214.4 L 403.1 226.1 L 399.5 231.8 L 397.6 235.1 L 396.2 237.7 L 394.8 240.4 L 394 242.2 L 393.2 244.1 L 392.4 246 L 391.7 247.9 L 390.7 250.6 L 389.6 254.4 L 388.2 259.3 L 386.7 265.5 L 385 273.9 L 383.1 285.3 L 380.8 301.3 L 380.5 304.8 L 380.3 307.9 L 380.1 310.8 L 380.1 313.6 L 380.2 317.1 L 380.7 326.2 L 381 335.7 L 383.1 376.3 L 383.2 381.9 L 383 385.2 L 382.9 387.4 L 382.7 390 L 382.4 392.4 L 382 394.8 L 381.6 397 L 381.2 399 L 380.7 401 L 380.2 402.9 L 379.6 404.7 L 379.1 406.4 L 378.2 408.8 L 376.9 411.8 L 375.5 415.2 L 374.9 416.2 L 374.4 417.2 L 373.9 418.1 L 373.3 418.9 L 372.8 419.7 L 372.2 420.4 L 371.6 421 L 371 421.7 L 370.4 422.3 L 369.7 422.9 L 369 423.6 L 360.8 430.6 L 359 432.1 L 357.7 433.1 L 356.2 434.1 L 354.5 435.3 L 351.5 437.2 L 346.5 440.1 L 332.5 447.9 L 297.5 465.9 L 285.2 471.6 L 277 475.1 L 270.7 477.5 L 264.7 479.6 L 255.9 482.3 L 251.7 483.5 L 246.6 484.7 L 241.7 485.8 L 235.9 486.8 L 226 488.3 L 221.2 488.8 L 214.5 489.3 L 195.3 490.1 L 178.2 490.2 L 167.8 490.4 L 164.2 490.6 L 162.5 490.8 L 161 491 L 159.6 491.2 L 158.2 491.5 L 156.9 491.9 L 155.7 492.3 L 154.5 492.7 L 153.4 493.1 L 152.4 493.6 L 151.4 494 L 150.5 494.5 L 146.4 496.7 L 145.7 497.1 L 145 497.4 L 144.3 497.7 L 143.6 497.9 L 143 498 L 141.5 498.2 L 140.4 498.1 L 139.6 497.8 L 139 497.3 L 138.4 496.7 L 137.8 495.9 L 137 495 L 136.4 494.4 L 135.8 493.7 L 135.2 493 L 134.6 492.1 L 134 491.3 L 133.3 490.4 L 132.7 489.5 L 132.1 488.5 L 131.5 487.6 L 130.9 486.7 L 130.4 485.8 L 129 483.2 L 128.7 482.5 L 128.3 481.8 L 128 481 L 127.8 480.1 L 127.5 479.1 L 127.3 477.7 L 125.6 467.4 L 125.3 464.5 L 125.1 462.4 L 125 460.2 L 124.9 457.8 L 124.9 455.2 L 124.9 452.5 L 125.6 440.9 L 126.8 428 L 128 418.4 L 129.2 410.8 L 130.5 404.2 L 132.9 393.6 L 137.1 377.6 L 140.4 366.3 L 143.1 358.4 L 145.2 352.7 L 147.1 348.2 L 148.6 344.8 L 150 342 L 151.5 339.1 L 153.6 335.4 L 155.8 331.7 L 158 328.2 L 160.3 324.9 L 163.3 320.8 L 166.4 316.9 L 170.2 312.4 L 174.7 307.4 L 179.5 302.5 L 181.8 300.3 L 184.2 298.1 L 186.6 296.1 L 189.9 293.5 L 193.2 290.9 L 197.4 288 L 203.3 284.1 L 214.9 276.8 L 218.8 274.6 L 222.7 272.6 L 227.6 270.2 L 232.3 268 L 237.7 265.7 L 242.7 263.8 L 246.3 262.6 L 247.5 262.2 L 248.8 261.8 L 250 261.5 L 251.1 261.3 L 252.3 261 L 253.4 260.8 L 254.5 260.6 L 255.5 260.5 L 256.6 260.4 L 257.6 260.3 L 258.5 260.2 L 260.3 260.1 L 262 260 L 265 260 L 266.5 260 L 267.7 260.1 L 268.7 260.3 L 269.4 260.6 L 270.1 261 L 270.7 261.5 L 271.3 262.2 L 272 263 L 272.4 263.6 L 272.9 264.2 L 273.3 264.8 L 273.7 265.5 L 274 266.2 L 274.4 267 L 274.7 267.8 L 275.1 268.7 L 275.5 269.8 L 275.8 270.9 L 276.6 273.5 L 277.8 278.1 L 279.7 286.3 L 282 298.3 L 284.4 313.1 L 287 333.1 L 290.5 368.4 L 292 391 L 292.7 419.1 L 292.5 431.2 L 291.9 442.8 L 291.1 451.8 L 285.1 501.6 L 284.8 506.8 L 284.7 509.9 L 284.6 511.2 L 284.7 512.3 L 284.7 513.3 L 284.8 514.2 L 284.8 515.1 L 284.9 515.8 L 285 516.5 L 285.1 517.1 L 285.5 519 L 285.8 520.4 L 285.9 521.2 L 286.1 523.1 L 286.5 525.4 L 287 528.6 L 287.6 531.6 L 288.3 534.4 L 289 537 L 289.4 538.2 L 289.7 539.3 L 290.1 540.2 L 290.4 541 L 290.8 541.8 L 291.3 542.7 L 293.8 547.5 L 301.1 560.4 L 302 562 L 302.5 563 L 302.9 564 L 303.3 564.9 L 303.7 565.8 L 305.7 571 L 306.1 571.9 L 306.5 572.9 L 307 574 L 308.2 576.4 L 314.1 587.3 L 316 591 L 317.3 593.8 L 322.1 605 L 323.5 608 L 324.4 609.8 L 326.3 613.3 L 333.3 625 L 335.6 629.2 L 336.5 631.1 L 337 632.1 L 337.5 633.2 L 338.4 635.2 L 340.6 640.8 L 341.3 642.6 L 341.7 643.5 L 342.1 644.3 L 342.5 645.2 L 343 646 L 343.6 646.9 L 344.1 647.9 L 344.8 648.8 L 345.4 649.7 L 346.7 651.5 L 348 653.2 L 352 658 L 353.1 659.2 L 353.9 659.7 L 354.6 660.1 L 355.2 660.8 L 356 662 L 356.4 662.7 L 357.2 664.3 L 358 666.3 L 358.9 668.4 L 359.3 669.4 L 359.7 670.6 L 360.1 671.7 L 360.4 672.8 L 360.7 673.9 L 361 675 L 361.6 677.8 L 361.7 678.4 L 361.8 679 L 361.8 679.6 L 361.9 680.3 L 361.9 681.1 L 362 682 L 362 691.4 L 360.9 734.4 L 360.9 742.1 L 361 744 L 361.2 746.5 L 361.5 748 L 361.8 748.8 L 362.2 749 L 362.7 748.9 L 363.2 748.7 L 363.8 748.6 L 364.5 748.8 L 365.2 749.5 L 366 751 L 366.3 751.6 L 367.5 754.6 L 378 782 L 379.2 784.7 L 379.8 786 L 380.2 786.4 L 380.5 786.5 L 381 787 L 381.7 787.9 L 382.4 788.7 L 383.2 789.4 L 384 790 L 384.9 790.5 L 385.8 790.8 L 386.8 791.2 L 388 792 L 388.6 792.5 L 389.7 793.4 L 390.3 793.9 L 390.9 794.6 L 391.6 795.4 L 392.4 796.3 L 393.1 797.5 L 394 799 L 394.3 799.6 L 395.1 801.1 L 395.9 802.9 L 402.9 818.9 L 403.7 820.4 L 404 821 L 404.8 822.4 L 405.5 823.6 L 406.2 824.5 L 406.8 825.2 L 407.3 825.8 L 407.9 826.3 L 409.2 827.3 L 410.7 828.6 L 411.5 829.2 L 412.3 829.8 L 413 830.4 L 413.9 830.9 L 414.8 831.5 L 415.7 832.1 L 424.3 837 L 425.9 837.9 L 427.8 838.9 L 430.2 840 L 435.6 842.3 L 490.4 863.4 L 499.9 867.6 L 510.4 872.6 L 511.8 873.4 L 512.5 873.8 L 513.3 874.2 L 514 874.7 L 515.8 875.8 L 519 878 L 520.3 878.9 L 522.3 880.5 L 534.2 890.3 L 537.7 893.1 L 540.4 895 L 542.2 896.3 L 544.1 897.4 L 545.8 898.5 L 547.5 899.4 L 549.3 900.4 L 552.1 901.7 L 556.9 904 L 573.2 910.8 L 577.3 912.6 L 580.3 914.2 L 583.5 915.9 L 594.8 922.4 L 597.2 923.6 L 599.1 924.5 L 602 925.9 L 604.6 927 L 607.2 928 L 621.8 933.1 L 624.7 934 L 626.8 934.6 L 629.1 935.2 L 631.7 935.7 L 634.6 936.3 L 642.2 937.6 L 657.2 939.8 L 670.3 941.2 L 676.8 941.7 L 683.8 941.9 L 699.5 942 L 706.9 941.8 L 709.8 941.6 L 711.6 941.5 L 713.4 941.3 L 714.2 941.1 L 715 941 L 716.2 940.8 L 717.2 940.5 L 718.2 940.3 L 719 940 L 719.8 939.7 L 720.5 939.4 L 721.2 939.1 L 736.5 931 L 745.2 926 L 748.6 924 L 750 923 L 752.1 921.5 L 753 920.8 L 753.9 920.1 L 754.7 919.4 L 755.5 918.8 L 756.3 918.1 L 757 917.4 L 757.7 916.8 L 758.3 916.1 L 759 915.4 L 760.2 914.1 L 761.4 912.7 L 764.5 909 L 765 908.3 L 765.5 907.6 L 766 906.8 L 766.5 906 L 766.9 905.2 L 767.4 904.3 L 767.8 903.4 L 768.2 902.4 L 768.6 901.2 L 769 900 L 769.5 898.4 L 770.4 895 L 771.1 892.2 L 771.7 889.3 L 772.1 887.2 L 772.4 885 L 772.6 882.8 L 772.8 880.6 L 773 878.3 L 773 877.2 L 773 873.3 L 772.8 868.8 L 772.6 865 L 772.3 861.1 L 771.9 858.1 L 771.4 855 L 770.8 851.8 L 770.1 848.5 L 769.3 845.2 L 768.1 840.7 L 766.3 835 L 764.3 829.2 L 762 823 L 757.8 812.9 L 749.7 795 L 717.4 729.9 L 713.5 721.6 L 712.8 719.7 L 712.2 718.3 L 711.9 717.3 L 711.8 716.7 L 711.8 716.2 L 711.8 716 L 712 715.5 L 712.1 715.2 L 712.1 714.7 L 712 714 L 711.4 711.3 L 711.3 710.6 L 711.2 709.9 L 711.1 709.2 L 711.1 708.2 L 711 707.1 L 711 704 L 711.2 693.5 L 711.8 678.7 L 715.6 630.2 L 717.6 612.1 L 719.1 602.1 L 720.9 592.4 L 722.1 587 L 725.4 574.7 L 726.8 569.8 L 729 563 L 729.4 562.4 L 730.2 561.9 L 731.1 561.5 L 732 561.3 L 732.6 561.3 L 732.9 561.5 L 732.4 562 L 731.2 562.8 L 729 564 L 682.6 585.2 L 677.6 587.8 L 672.7 590.4 L 670.8 591.6 L 669.1 592.6 L 667.7 593.6 L 667 594.1 L 666.3 594.6 L 665.1 595.6 L 663.9 596.6 L 659.2 600.7 L 656.9 602.8 L 654.7 605.1 L 652.5 607.4 L 651.1 609 L 649.7 610.6 L 648.4 612.2 L 647.2 613.8 L 646 615.4 L 645.5 616.2 L 645 617 L 644.4 617.9 L 643.9 618.9 L 643.4 619.8 L 642.9 620.7 L 642.5 621.7 L 642 622.6 L 641.6 623.6 L 641.2 624.5 L 640.9 625.5 L 640.2 627.4 L 639.6 629.3 L 639 631.2 L 638.2 634.1 L 637.4 637.7 L 637.1 639.3 L 636.9 640 L 636.8 640.8 L 636.7 641.6 L 636.5 643.2 L 636.4 645.1 L 635.9 654.5 L 634.8 700.1 L 632.1 737.7 L 631.9 742.7 L 631.9 744 L 631.9 745.1 L 632 745.9 L 632.1 746.6 L 632.2 747.2 L 632.3 747.8 L 632.6 749.1 L 632.8 750 L 633 751 L 633.1 751.8 L 633.2 752.6 L 633.5 755.3 L 633.6 756.1 L 633.7 756.8 L 633.8 757.6 L 634 758.6 L 634.3 759.6 L 634.7 760.7 L 635.1 762 L 635.6 763.5 L 636.3 765.1 L 637.3 767.6 L 639.2 772.1 L 658.7 813.4 L 661.5 820 L 662.8 823.2 L 663.4 824.9 L 663.8 826.4 L 664.2 827.8 L 665 831 L 665.3 832.5 L 665.4 833.7 L 665.4 834.8 L 665.3 835.8 L 665.1 837.4 L 665 838.2 L 665 839 L 665.2 841.4 L 665.3 842.4 L 665.6 843.3 L 666 844 L 666.5 844.5 L 666.9 844.8 L 677.1 845.6 L 683.9 845.9 L 708.3 846.3 L 718.9 846.2 L 725 845.9 L 732.3 845.3 L 742.5 844.1 L 763.2 841 L 783.9 837" stroke-width="4"></path></g><g wiz-type="ink" stroke="#333333" stroke-linecap="round" stroke-linejoin="round" fill="none"><path d="M 242 336 L 242.5 335.8 L 243 336 L 243.1 336.8 L 243.1 338.1 L 243 340 L 243.2 339.9 L 243 339 L 242.1 338.3 L 240.9 337.4 L 240 337 L 239.8 338.1 L 240 339 L 240.2 338.2 L 240.4 336.8 L 240.7 335.5 L 241 335 L 241.2 335.6 L 241.5 336.8 L 241.7 338.3 L 241.9 339.5" stroke-width="4"></path></g></svg>